<?xml version="1.0" encoding="utf-8"?>
<!-- Generator: Adobe Illustrator 24.0.1, SVG Export Plug-In . SVG Version: 6.00 Build 0)  -->
<svg version="1.1" id="Layer_1" xmlns="http://www.w3.org/2000/svg" xmlns:xlink="http://www.w3.org/1999/xlink" x="0px" y="0px"
	 viewBox="0 0 512 512" style="enable-background:new 0 0 512 512;" xml:space="preserve">
<style type="text/css">
	.st0{fill:#FF4A4F;}
	.st1{fill:#E94A4F;}
	.st2{fill:#FFFFFF;}
	.st3{fill:#2A2A2C;}
	.st4{fill:#171719;}
	.st5{fill:#57555C;}
	.st6{fill:#3C3B41;}
	.st7{fill:#C8C6CC;}
</style>
<circle class="st0" cx="256" cy="256" r="256"/>
<path class="st1" d="M512,256c0-13.4-1-26.6-3-39.4L397.9,105.5H108.4H82.9v241.4v97.6l0,0C128.5,486.4,189.2,512,256,512
	C397.4,512,512,397.4,512,256z"/>
<path class="st2" d="M82.9,105.5v339.1c8,7.4,16.6,14.3,25.5,20.6V105.5L82.9,105.5L82.9,105.5z"/>
<rect x="334.6" y="152.9" class="st3" width="105.8" height="241.5"/>
<polygon class="st4" points="397.9,105.5 334.6,152.9 334.6,394.4 397.9,346.9 "/>
<rect x="82.9" y="105.5" class="st5" width="315" height="241.5"/>
<rect x="240.4" y="105.5" class="st6" width="157.5" height="241.5"/>
<path class="st2" d="M187.4,158.4l14,14c-6,5.2-11,11.6-14.6,18.8l-16.1-16.1c-6,5.8-15.4,5.7-21.3-0.2c-5.9-5.9-5.9-15.6,0-21.5
	c3.3-3.3,7.7-4.7,11.9-4.4c-0.3-4.3,1.1-8.7,4.4-11.9c5.9-5.9,15.6-5.9,21.5,0C193.1,143,193.2,152.5,187.4,158.4z"/>
<path class="st7" d="M331.4,302.7c-3.3,3.3-7.7,4.7-11.9,4.4c0.3,4.3-1.1,8.7-4.4,11.9c-5.9,5.9-15.6,5.9-21.5,0
	c-5.9-5.9-5.9-15.4-0.2-21.3L272,276.3v-5.2c1.6,0.3,3.2,0.5,4.8,0.5c6.6,0,12.5-2.7,16.8-7L310,281c5.9-5.8,15.4-5.7,21.3,0.2
	C337.3,287.1,337.3,296.8,331.4,302.7z"/>
<path class="st2" d="M204,271.6c1.6,0,3.3-0.2,4.8-0.5v5.2l-21.4,21.4c5.8,5.9,5.7,15.4-0.2,21.3c-5.9,5.9-15.6,5.9-21.5,0
	c-3.3-3.3-4.7-7.7-4.4-11.9c-4.3,0.3-8.7-1.1-11.9-4.4c-5.9-5.9-5.9-15.6,0-21.5c5.9-5.9,15.4-5.9,21.3-0.2l16.5-16.5
	C191.5,268.9,197.4,271.6,204,271.6z"/>
<path class="st7" d="M331.4,174.9c-5.9,5.9-15.4,5.9-21.3,0.2l-16.1,16.1c-3.6-7.2-8.6-13.6-14.6-18.8l14-14
	c-5.8-6-5.7-15.4,0.2-21.3c5.9-5.9,15.6-5.9,21.5,0c3.3,3.3,4.7,7.7,4.4,11.9c4.3-0.3,8.7,1.1,11.9,4.4
	C337.3,159.4,337.3,169,331.4,174.9z"/>
<path class="st2" d="M286.7,237.7c2.6-6.1,4.1-12.9,4.1-20c0-27.9-22.6-50.5-50.5-50.5s-50.5,22.6-50.5,50.5c0,7.1,1.5,13.8,4.1,20
	c-2.7,2.6-4.4,6.3-4.4,10.4c0,7.9,6.4,14.4,14.4,14.4c3.1,0,6-1,8.4-2.7c1.8,1.2,3.7,2.3,5.7,3.3v15.8c0,3.8,3.1,6.8,6.8,6.8h0.8
	v-18.3h6.6v18.3h4.8v-18.3h6.6v18.3h4.8v-18.3h6.6v18.3h0.8c3.8,0,6.8-3.1,6.8-6.8v-15.8c2-1,3.9-2.1,5.7-3.3
	c2.4,1.7,5.3,2.7,8.4,2.7c7.9,0,14.4-6.4,14.4-14.4C291.2,243.9,289.5,240.3,286.7,237.7z M222.7,226.2h-5c-5.3,0-9.6-4.3-9.6-9.6
	v-5c0-5.3,4.3-9.6,9.6-9.6h5c5.3,0,9.6,4.3,9.6,9.6v5C232.4,221.8,228,226.2,222.7,226.2z M246.5,246.1h-6.1h-6.1
	c-2.9,0-4.7-3.1-3.3-5.6l3-5.3l3-5.3c1.4-2.5,5.1-2.5,6.5,0l3,5.3l3,5.3C251.2,243,249.4,246.1,246.5,246.1z M272.7,216.5
	c0,5.3-4.3,9.6-9.6,9.6h-5c-5.3,0-9.6-4.3-9.6-9.6v-5c0-5.3,4.3-9.6,9.6-9.6h5c5.3,0,9.6,4.3,9.6,9.6V216.5z"/>
<path class="st7" d="M286.7,237.7c2.6-6.1,4.1-12.9,4.1-20c0-27.9-22.6-50.5-50.5-50.5v60.8c1.3,0,2.5,0.6,3.3,1.9l3,5.3l3,5.3
	c1.4,2.5-0.4,5.6-3.3,5.6h-6.1v21.2h3.3v18.3h4.8v-18.3h6.6v18.3h0.8c3.8,0,6.8-3.1,6.8-6.8v-15.9c2-1,3.9-2.1,5.7-3.3
	c2.4,1.7,5.3,2.7,8.4,2.7c7.9,0,14.4-6.4,14.4-14.4C291.2,243.9,289.5,240.3,286.7,237.7z M272.7,216.5c0,5.3-4.3,9.6-9.6,9.6h-5
	c-5.3,0-9.6-4.3-9.6-9.6v-5c0-5.3,4.3-9.6,9.6-9.6h5c5.3,0,9.6,4.3,9.6,9.6V216.5z"/>
</svg>
